<svg width="30" height="30" viewBox="0 0 30 30" fill="none" xmlns="http://www.w3.org/2000/svg">
<path d="M12.525 26.7L12.975 24.6C13.05 24.275 13.2063 24.0063 13.4438 23.7938C13.6813 23.5813 13.975 23.45 14.325 23.4L18.975 23.025C19.3 22.975 19.6 23.0375 19.875 23.2125C20.15 23.3875 20.35 23.625 20.475 23.925L21.075 25.35C22.05 24.775 22.925 24.0812 23.7 23.2687C24.475 22.4562 25.125 21.55 25.65 20.55L25.2 20.325C24.925 20.125 24.725 19.8813 24.6 19.5938C24.475 19.3062 24.45 19 24.525 18.675L25.575 14.1C25.65 13.8 25.8063 13.55 26.0438 13.35C26.2812 13.15 26.55 13.025 26.85 12.975C26.725 12.35 26.5688 11.7437 26.3813 11.1562C26.1938 10.5688 25.95 10 25.65 9.45C25.425 9.575 25.1813 9.63125 24.9188 9.61875C24.6562 9.60625 24.425 9.525 24.225 9.375L20.25 6.975C19.975 6.8 19.775 6.5625 19.65 6.2625C19.525 5.9625 19.5 5.65 19.575 5.325L19.875 4.05C19.1 3.7 18.3062 3.4375 17.4937 3.2625C16.6812 3.0875 15.85 3 15 3C14.65 3 14.2875 3.01875 13.9125 3.05625C13.5375 3.09375 13.175 3.15 12.825 3.225L13.95 5.775C14.075 6.075 14.1062 6.3875 14.0437 6.7125C13.9812 7.0375 13.825 7.3 13.575 7.5L10.05 10.575C9.8 10.8 9.50625 10.925 9.16875 10.95C8.83125 10.975 8.525 10.9 8.25 10.725L4.8 8.625C4.225 9.575 3.78125 10.5938 3.46875 11.6812C3.15625 12.7687 3 13.875 3 15C3 15.4 3.05 16.05 3.15 16.95L6.45 16.65C6.8 16.6 7.11875 16.6562 7.40625 16.8188C7.69375 16.9813 7.9 17.225 8.025 17.55L9.825 21.825C9.95 22.125 9.98125 22.4375 9.91875 22.7625C9.85625 23.0875 9.7 23.35 9.45 23.55L8.025 24.75C8.7 25.25 9.41875 25.6625 10.1812 25.9875C10.9437 26.3125 11.725 26.55 12.525 26.7ZM15.225 20.25C14.9 20.3 14.6 20.2375 14.325 20.0625C14.05 19.8875 13.85 19.65 13.725 19.35L11.7 14.7C11.575 14.4 11.5563 14.0875 11.6438 13.7625C11.7312 13.4375 11.9 13.175 12.15 12.975L15.975 9.75C16.2 9.525 16.475 9.4 16.8 9.375C17.125 9.35 17.425 9.425 17.7 9.6L21.9 12.075C22.175 12.25 22.3875 12.4875 22.5375 12.7875C22.6875 13.0875 22.725 13.4 22.65 13.725L21.45 18.6C21.375 18.925 21.225 19.1938 21 19.4062C20.775 19.6187 20.5 19.75 20.175 19.8L15.225 20.25ZM15 30C12.925 30 10.975 29.6063 9.15 28.8188C7.325 28.0312 5.7375 26.9625 4.3875 25.6125C3.0375 24.2625 1.96875 22.675 1.18125 20.85C0.39375 19.025 0 17.075 0 15C0 12.925 0.39375 10.975 1.18125 9.15C1.96875 7.325 3.0375 5.7375 4.3875 4.3875C5.7375 3.0375 7.325 1.96875 9.15 1.18125C10.975 0.39375 12.925 0 15 0C17.075 0 19.025 0.39375 20.85 1.18125C22.675 1.96875 24.2625 3.0375 25.6125 4.3875C26.9625 5.7375 28.0312 7.325 28.8188 9.15C29.6063 10.975 30 12.925 30 15C30 17.075 29.6063 19.025 28.8188 20.85C28.0312 22.675 26.9625 24.2625 25.6125 25.6125C24.2625 26.9625 22.675 28.0312 20.85 28.8188C19.025 29.6063 17.075 30 15 30Z" fill="#00469E"/>
</svg>
