<svg width="79" height="68" viewBox="0 0 79 68" fill="none" xmlns="http://www.w3.org/2000/svg">
<g clip-path="url(#clip0_0_3104)">
<path d="M8.59851 64.9851H8.07617V64.1466H9.53988V68H8.59851V64.9851Z" fill="#FFD110"/>
<path d="M15.3544 64.9851H14.832V64.1466H16.2957V68H15.3544V64.9851Z" fill="#FFD110"/>
<path d="M29.9631 66.4724H28.5568V67.9942H27.6499V64.2902H28.5568V65.7431H29.9631V64.2902H30.8701V67.9942H29.9631V66.4724Z" fill="#FFD110"/>
<path d="M38.5958 67.3453H37.2125L36.9886 68H36.0415L37.3847 64.2959H38.4351L39.7783 68H38.8197L38.5958 67.3453ZM37.907 65.2894L37.4536 66.6447H38.3662L37.907 65.2894Z" fill="#FFD110"/>
<path d="M46.4712 64.2959C47.3781 64.2959 47.8373 64.8185 47.8373 65.4617C47.8373 65.9268 47.5847 66.3633 47.0107 66.5298L47.866 67.9942H46.8443L46.0694 66.5988H45.8513V67.9942H44.9443V64.2902H46.4654L46.4712 64.2959ZM46.4138 65.0425H45.8513V65.9613H46.4138C46.7524 65.9613 46.9132 65.789 46.9132 65.4961C46.9132 65.2205 46.7524 65.0425 46.4138 65.0425Z" fill="#FFD110"/>
<path d="M55.4371 65.0195H54.0652V65.766H55.2764V66.4609H54.0652V67.2707H55.4371V67.9942H53.1641V64.2902H55.4371V65.0137V65.0195Z" fill="#FFD110"/>
<path d="M63.0655 65.0195H61.6937V65.766H62.9048V66.4609H61.6937V67.2707H63.0655V67.9942H60.7925V64.2902H63.0655V65.0137V65.0195Z" fill="#FFD110"/>
<path d="M68.4154 64.2959H70.832V65.0195H69.3166V65.8005H70.4474V66.5011H69.3166V68H68.4097V64.2959H68.4154Z" fill="#FFD110"/>
<path d="M34.1703 44.1102C33.889 43.7943 33.5274 43.5531 33.1141 43.4153C32.7697 43.3004 32.3909 43.2602 31.9948 43.3234C31.9317 43.3292 31.8685 43.3406 31.8054 43.3579C30.9157 43.5531 30.1982 44.2767 30.003 45.1611C29.6127 46.9241 31.151 48.4632 32.9132 48.0727C33.4069 47.9636 33.8489 47.6936 34.1818 47.3204C34.2334 47.2629 34.2794 47.2055 34.3253 47.1423C34.3482 47.1136 34.3655 47.0849 34.3884 47.0562C34.5434 46.8207 34.6582 46.5508 34.7271 46.2694C34.8821 45.5688 34.7271 44.8969 34.3827 44.3743C34.3655 44.3456 34.3425 44.3169 34.3195 44.2882C34.2736 44.225 34.2277 44.1676 34.176 44.1102H34.1703Z" fill="#FFD110"/>
<path d="M37.8098 43.3063C37.7639 43.3063 37.7179 43.3005 37.6663 43.2948C37.4596 43.289 37.2473 43.3063 37.0291 43.3522C36.5355 43.4613 36.0935 43.7312 35.7663 44.1045C35.7147 44.1619 35.6687 44.2194 35.6228 44.2825C35.5999 44.3112 35.5826 44.34 35.5654 44.3687C35.4047 44.6041 35.2899 44.8683 35.2268 45.1554C35.0718 45.856 35.2268 46.5222 35.5654 47.0448C35.5826 47.0735 35.6056 47.1022 35.6286 47.1309C35.6687 47.1941 35.7204 47.2573 35.7721 47.3147C36.2829 47.889 37.0636 48.2163 37.9131 48.1072C37.959 48.1015 38.0049 48.0957 38.0509 48.0842C38.0796 48.0842 38.1083 48.0727 38.137 48.067C38.269 48.0383 38.3953 47.9981 38.5215 47.9464C39.2276 47.6535 39.7729 47.0218 39.9393 46.2638C40.2321 44.9372 39.4457 43.7427 38.2862 43.3924C38.1312 43.3465 37.9705 43.312 37.804 43.3005L37.8098 43.3063Z" fill="#FFD110"/>
<path d="M24.8084 45.9249C26.628 44.8395 28.3328 43.4153 29.8826 41.681C30.6058 41.9107 31.3176 42.0715 32.0064 42.1749C32.4484 42.238 32.8846 42.2725 33.3094 42.284C34.7157 42.3184 36.0474 42.0715 37.3102 41.5317C37.3504 41.5144 37.3848 41.4972 37.4192 41.48C37.4652 41.457 37.5168 41.4398 37.5627 41.4168C37.7694 41.3249 37.9703 41.2216 38.1654 41.1124C39.4742 40.3946 40.559 39.3954 41.4602 38.2813C41.4774 38.264 41.4889 38.2468 41.5061 38.2238C41.7817 37.8793 42.04 37.529 42.2753 37.1729C44.7263 33.4861 45.4668 29.1273 45.5069 28.8574L42.6943 28.398L42.1031 28.3003C42.1031 28.3003 42.0514 28.6105 41.9366 29.0871C41.9194 29.156 41.9022 29.2307 41.885 29.3111C41.4545 31.0856 40.3122 34.7954 37.9531 37.0236C37.7636 37.2016 37.5685 37.3682 37.3618 37.529C37.3159 37.5634 37.27 37.5979 37.2241 37.6323C36.828 37.9195 36.4033 38.1664 35.9498 38.3617C34.8305 38.8383 33.5734 38.9532 32.1901 38.712C32.7985 37.8161 33.3725 36.8571 33.9063 35.8463C35.9728 31.9642 35.4332 28.6105 32.4599 26.8761C28.9297 24.8202 23.006 25.8367 20.5263 28.7655C20.3599 28.955 20.2164 29.156 20.0844 29.3628C19.9294 29.604 19.8031 29.8509 19.694 30.1036C19.5505 30.4424 19.453 30.7927 19.3956 31.1488C19.3324 31.5106 19.3152 31.8723 19.3439 32.2456C19.3669 32.6132 19.4357 32.9807 19.5391 33.354C19.6079 33.6067 19.7055 33.8593 19.8146 34.112C19.9294 34.3704 20.0671 34.6346 20.2279 34.893C21.0315 36.2139 22.3746 37.5232 24.2287 38.8039C25.0036 39.3322 25.7612 39.8031 26.5075 40.2166C24.4755 42.2438 22.1967 43.668 19.7629 44.426C19.5046 44.5064 19.2463 44.5811 18.988 44.6442C18.9019 44.6672 18.8216 44.6844 18.7355 44.7074C17.4267 45.0118 16.0778 45.1209 14.706 45.0347C9.84415 44.7189 5.42433 41.7671 3.95488 37.862C2.69208 34.5083 3.74824 30.919 6.91674 27.7433C9.45957 25.1993 13.667 23.8899 19.7457 23.7406C19.8318 23.7406 19.9122 23.7406 19.9983 23.7349C20.2451 23.7291 20.5034 23.7234 20.7617 23.7234C20.8248 23.7234 20.8822 23.7234 20.9511 23.7234H25.2102V20.272H20.9339C20.6756 20.272 20.423 20.272 20.1705 20.2777C20.0844 20.2777 20.004 20.2777 19.9179 20.2777C12.7716 20.4213 7.7146 22.0637 4.48871 25.2911C0.367368 29.4144 -1.0045 34.4336 0.74047 39.068C2.70356 44.2824 8.2312 48.0612 14.4993 48.4689C14.8839 48.4976 15.2685 48.5034 15.6588 48.5034C16.6461 48.5034 17.6219 48.423 18.5805 48.2564C18.6666 48.2449 18.7469 48.2277 18.8273 48.2105C19.0856 48.1645 19.3439 48.1071 19.6022 48.0497C20.8593 47.7568 22.0819 47.3261 23.2643 46.7576C23.7867 46.5106 24.3033 46.2292 24.8084 45.9249ZM26.8461 35.0136C24.5731 33.4459 23.7809 32.1135 23.9704 31.8092C24.4066 31.1258 26.1458 30.3965 28.0458 30.3965C28.9125 30.3965 29.6645 30.5573 30.1638 30.8444C30.3533 30.9535 30.4738 31.0339 30.5369 31.2349C30.6058 31.4646 30.6747 32.1537 29.8654 33.6813C29.4234 34.5083 28.9527 35.295 28.4648 36.0301C27.9425 35.7315 27.4029 35.3927 26.8519 35.0136H26.8461Z" fill="#FFD110"/>
<path d="M76.8645 33.3138C76.7841 33.3138 76.7038 33.3138 76.6234 33.3253C76.4282 33.3483 76.2388 33.3942 76.0666 33.4689C75.8542 33.555 75.6591 33.6699 75.4926 33.8135C75.0219 34.0547 74.5512 34.1925 74.0748 34.2327C71.3713 34.4509 68.7136 31.4073 67.7091 30.253L67.6804 30.2185C67.1811 29.65 66.762 29.1905 66.3545 28.7771C63.9494 26.3249 61.6304 24.4126 59.4033 23.0515C59.2943 22.9826 59.1795 22.9137 59.0704 22.8505C56.1085 21.0933 53.3189 20.318 50.7301 20.5362C46.626 20.8808 44.64 23.6718 44.5596 23.7866L47.4985 25.8368C47.6477 25.6473 48.8072 24.2575 51.1262 24.0967C52.8826 23.9761 55.5747 24.5389 59.3 27.3012C59.4091 27.3816 59.5239 27.4677 59.6329 27.5539C60.9015 28.5244 62.2906 29.7476 63.7944 31.2867C64.1503 31.6484 64.5234 32.0562 64.9769 32.573L65.0056 32.6075C66.2282 34.0145 69.3278 37.5635 73.3458 37.8104L70.1199 42.2381L70.0912 42.284C70.0683 42.3185 70.0453 42.3529 70.0166 42.3874C68.9834 43.8116 67.4394 44.719 65.6772 44.9429C63.8748 45.1784 62.0265 44.6501 60.6145 43.4958C60.5571 43.4498 60.5054 43.4039 60.448 43.3579C60.3332 43.266 60.2184 43.1684 60.1093 43.0765C60.0175 42.9961 59.9257 42.9215 59.8396 42.8468C58.4046 41.4915 57.7272 40.2798 57.1303 39.2117C56.43 37.9597 55.7067 36.6676 54.0881 35.8234C53.5772 35.5593 51.7404 34.7553 49.5764 35.5076C48.084 36.0244 46.8958 37.1041 46.2414 38.5455L43.1648 45.2818C42.7974 46.0915 42.3325 46.8266 41.7929 47.4812C41.5576 47.7684 41.2993 48.0383 41.0352 48.2967C40.3235 48.9743 39.5141 49.5371 38.6302 49.9678C38.435 50.0655 38.2341 50.1516 38.0275 50.232C37.1263 50.5938 36.1619 50.8235 35.1517 50.9097C31.6905 51.2025 28.4703 49.675 26.5417 46.8323C26.5015 46.7749 26.4613 46.7232 26.4269 46.6658C26.3637 46.5796 26.3006 46.4877 26.2719 46.4361L25.2674 46.9759L23.8783 47.7224H23.8668L23.1206 48.1302C23.2526 48.3714 23.3846 48.5666 23.4994 48.7217C23.5281 48.7619 23.5568 48.8021 23.5798 48.8365C26.0308 52.4487 29.9799 54.5219 34.3022 54.5219C34.681 54.5219 35.0656 54.5046 35.4502 54.4759C36.403 54.3955 37.3272 54.2175 38.2169 53.9533C38.4235 53.8901 38.6244 53.827 38.8253 53.7581C39.5199 53.5169 40.1857 53.2183 40.8229 52.8622C41.0754 52.7244 41.3222 52.5751 41.5633 52.42C43.6527 51.0762 45.346 49.1409 46.4309 46.7634L49.5075 40.0271C49.7543 39.4873 50.2021 39.0796 50.7646 38.8843C51.6141 38.5857 52.366 38.9532 52.4521 38.9992C53.0893 39.3323 53.3935 39.8376 54.0192 40.9517C54.6735 42.1232 55.569 43.7312 57.4287 45.477L57.4861 45.5229C57.7617 45.7641 58.0602 46.0111 58.3701 46.2638C58.9843 46.7634 59.6559 47.1884 60.3619 47.5329C60.471 47.5846 60.58 47.6363 60.6948 47.688C62.3939 48.446 64.2938 48.7332 66.1593 48.492C68.9088 48.1359 71.3139 46.7174 72.9326 44.495C72.9785 44.4376 73.0129 44.3801 73.0531 44.3227L78.6209 36.6963C78.8218 36.4149 78.9596 36.0819 79.0055 35.7201C79.017 35.6282 79.0227 35.542 79.0227 35.4502C79.0227 34.2671 78.0641 33.3138 76.8874 33.3138H76.8645Z" fill="#FFD110"/>
<path d="M28.0456 23.7119C28.5852 24.2345 29.3658 24.5044 30.1981 24.3493C30.2268 24.3493 30.2555 24.3379 30.2785 24.3321C31.1682 24.1369 31.8857 23.419 32.0808 22.5289C32.4137 21.03 31.3576 19.6977 29.9513 19.5656C29.7045 19.5427 29.4404 19.5599 29.1764 19.6173C28.7344 19.7149 28.3326 19.9389 28.0226 20.2548C27.9824 20.295 27.948 20.3294 27.9136 20.3696C27.6495 20.6625 27.4601 21.0243 27.374 21.4205C27.1903 22.2475 27.4314 23.0228 27.9193 23.5741C27.9595 23.62 27.9997 23.6602 28.0456 23.7062V23.7119Z" fill="#FFD110"/>
<path d="M38.2748 55.1305C37.3908 55.3774 36.4782 55.5382 35.5483 55.6186C35.1235 55.6531 34.7103 55.6703 34.3027 55.6703C29.5557 55.6703 25.3023 53.4191 22.6332 49.4853L22.6218 49.4681C22.6218 49.4681 22.5988 49.4394 22.5931 49.4222L22.5586 49.3762C22.4496 49.2212 22.2774 48.98 22.1166 48.6756L22.0305 48.5148C21.3188 48.7732 20.6013 48.9915 19.8723 49.158C19.591 49.2212 19.3155 49.2786 19.0457 49.3303C18.8735 49.3647 18.7071 49.3935 18.5349 49.4164L17.9609 61.4073H38.602L38.2806 55.1247L38.2748 55.1305ZM29.9518 19.5656C29.7049 19.5426 29.4409 19.5598 29.1769 19.6173C28.7349 19.7149 28.3331 19.9389 28.0231 20.2547C27.9829 20.2949 27.9485 20.3294 27.9141 20.3696C27.65 20.6624 27.4606 21.0242 27.3745 21.4205C27.1908 22.2474 27.4319 23.0227 27.9198 23.574C27.96 23.62 28.0002 23.6602 28.0461 23.7061C28.5856 24.2287 29.3663 24.4986 30.1986 24.3435C30.2273 24.3435 30.256 24.3321 30.279 24.3263C31.1687 24.1311 31.8862 23.4132 32.0813 22.5231C32.4142 21.0242 31.3581 19.6919 29.9518 19.5598V19.5656ZM36.9718 29.7417L36.9202 28.6966L36.725 24.8776L36.57 21.8512L36.5585 21.6904L35.7607 6.04712L35.4507 0H19.1376L16.5947 12.6972H20.2683L20.0732 17.3202V17.3431L19.9871 19.1349C20.0445 19.1349 20.1076 19.1349 20.165 19.1349C20.4176 19.1349 20.6816 19.1291 20.9457 19.1291H27.5869C27.9829 18.8305 28.4364 18.618 28.93 18.5089C29.3204 18.4228 29.6992 18.3998 30.0666 18.4343C31.0768 18.5261 32.0067 19.0545 32.6094 19.8872C33.2121 20.7141 33.4302 21.7708 33.2006 22.7873C33.0743 23.3501 32.8103 23.8669 32.4487 24.2976C32.1502 24.6537 31.7828 24.9408 31.3696 25.159C31.4671 25.1877 31.5647 25.2222 31.6566 25.2566C32.0469 25.3945 32.42 25.561 32.7816 25.7505C32.7931 25.7505 32.7988 25.762 32.8103 25.7678C32.8907 25.808 32.9653 25.8539 33.0456 25.8998C34.1362 26.5315 34.9571 27.3585 35.4966 28.3233C36.0821 29.1847 36.6274 30.2758 37.0694 31.6541L36.9718 29.759V29.7417Z" fill="#FFD110"/>
<path d="M59.002 21.5009C56.0689 19.8872 53.262 19.1808 50.6388 19.4048C50.5412 19.4105 50.4494 19.422 50.3518 19.4335C47.1948 19.7838 44.4281 21.7019 42.884 24.4756L42.0976 25.8884L42.2584 22.5518L42.7233 12.6972H39.0439L41.581 0H57.8999L58.9217 19.9618L59.002 21.5009Z" fill="#FFD110"/>
<path d="M61.0454 61.4131H40.4043L40.7487 54.1945C41.2366 53.9533 41.713 53.6891 42.1722 53.3962C44.4682 51.9203 46.2993 49.7955 47.4588 47.2515L50.5354 40.5152C50.656 40.2568 50.8569 40.073 51.1267 39.9754C51.2357 39.9352 51.339 39.9237 51.4366 39.9237C51.7007 39.9237 51.9073 40.0271 51.9073 40.0271C52.2288 40.1936 52.4182 40.4808 53.0037 41.5317C53.6925 42.7664 54.6453 44.4605 56.6314 46.3326L56.7117 46.4015C57.0217 46.6715 57.3316 46.9299 57.6186 47.1653C58.405 47.8028 59.266 48.3368 60.1959 48.7446C60.2591 48.7733 60.3279 48.802 60.3911 48.8307L61.034 61.4188L61.0454 61.4131Z" fill="#FFD110"/>
<path d="M29.9513 19.5656C29.7045 19.5427 29.4404 19.5599 29.1764 19.6173C28.7344 19.7149 28.3326 19.9389 28.0226 20.2548C27.9824 20.295 27.948 20.3294 27.9136 20.3696C27.6495 20.6625 27.4601 21.0243 27.374 21.4205C27.1903 22.2475 27.4314 23.0228 27.9193 23.5741C27.9595 23.62 27.9997 23.6602 28.0456 23.7062C28.5852 24.2287 29.3658 24.4987 30.1981 24.3436C30.2268 24.3436 30.2555 24.3321 30.2785 24.3264C31.1682 24.1311 31.8857 23.4133 32.0808 22.5232C32.4137 21.0243 31.3576 19.692 29.9513 19.5599V19.5656Z" fill="#FFD110"/>
</g>
<defs>
<clipPath id="clip0_0_3104">
<rect width="79" height="68" fill="white"/>
</clipPath>
</defs>
</svg>
