<svg width="60" height="52" viewBox="0 0 60 52" fill="none" xmlns="http://www.w3.org/2000/svg">
<rect width="60" height="52" fill="#1E1E1E"/>
<g id="Halim website">
<path d="M-2563 -857C-2563 -858.105 -2562.1 -859 -2561 -859H17440C17441.1 -859 17442 -858.105 17442 -857V8367C17442 8368.1 17441.1 8369 17440 8369H-2561C-2562.1 8369 -2563 8368.1 -2563 8367V-857Z" fill="#444444"/>
<path d="M-2561 -859V-858H17440V-859V-860H-2561V-859ZM17442 -857H17441V8367H17442H17443V-857H17442ZM17440 8369V8368H-2561V8369V8370H17440V8369ZM-2563 8367H-2562V-857H-2563H-2564V8367H-2563ZM-2561 8369V8368C-2561.55 8368 -2562 8367.55 -2562 8367H-2563H-2564C-2564 8368.66 -2562.66 8370 -2561 8370V8369ZM17442 8367H17441C17441 8367.55 17440.6 8368 17440 8368V8369V8370C17441.7 8370 17443 8368.66 17443 8367H17442ZM17440 -859V-858C17440.6 -858 17441 -857.553 17441 -857H17442H17443C17443 -858.657 17441.7 -860 17440 -860V-859ZM-2561 -859V-860C-2562.66 -860 -2564 -858.657 -2564 -857H-2563H-2562C-2562 -857.552 -2561.55 -858 -2561 -858V-859Z" fill="white" fill-opacity="0.1"/>
<g id="&#216;&#167;&#217;&#132;&#216;&#177;&#216;&#166;&#217;&#138;&#216;&#179;&#217;&#138;&#216;&#169; - 11 &#216;&#173;&#216;&#177;&#217;&#138;&#217;&#129;">
<rect width="1280" height="3223" transform="translate(-1196 -16)" fill="white"/>
<rect width="1280" height="3223" transform="translate(-1196 -16)" fill="#F9F9FF"/>
<g id="TopNavBar">
<rect width="1280" height="84" transform="translate(-1196 -16)" fill="#F9F9FF" fill-opacity="0.9"/>
<g id="Container">
<g id="Isolation_Mode" clip-path="url(#clip0_0_1)">
<g id="Group">
<g id="Group_2">
<path id="Vector" d="M6.53055 49.697H6.13281V49.0559H7.24649V51.9975H6.53055V49.697Z" fill="#005DCC"/>
<path id="Vector_2" d="M11.6599 49.697H11.2622V49.0559H12.3759V51.9975H11.6599V49.697Z" fill="#005DCC"/>
<path id="Vector_3" d="M22.7612 50.8343H21.6911V52.0001H21.0034V49.1697H21.6911V50.2786H22.7612V49.1697H23.4489V52.0001H22.7612V50.8343Z" fill="#005DCC"/>
<path id="Vector_4" d="M29.3174 51.4985H28.2653L28.0959 51.9974H27.3774L28.3987 49.167H29.1942L30.2155 51.9974H29.4868L29.3174 51.4985ZM28.7913 49.9321L28.4449 50.9686H29.1403L28.7913 49.9321Z" fill="#005DCC"/>
<path id="Vector_5" d="M35.2938 49.1697C35.984 49.1697 36.3305 49.5677 36.3305 50.0615C36.3305 50.4156 36.138 50.7516 35.7043 50.8809L36.3561 52.0027H35.5812L34.9935 50.9352H34.8293V52.0027H34.1416V49.1723H35.2963L35.2938 49.1697ZM35.2553 49.7409H34.8293V50.4414H35.2553C35.5119 50.4414 35.6325 50.3096 35.6325 50.0873C35.6325 49.8779 35.5119 49.7409 35.2553 49.7409Z" fill="#005DCC"/>
<path id="Vector_6" d="M42.1094 49.7228H41.0676V50.2941H41.9888V50.8266H41.0676V51.447H42.1094V52.0001H40.3799V49.1697H42.1094V49.7228Z" fill="#005DCC"/>
<path id="Vector_7" d="M47.9009 49.7228H46.8591V50.2941H47.7803V50.8266H46.8591V51.447H47.9009V52.0001H46.1714V49.1697H47.9009V49.7228Z" fill="#005DCC"/>
<path id="Vector_8" d="M51.9653 49.1697H53.8026V49.7228H52.653V50.3199H53.5127V50.855H52.653V52.0001H51.9653V49.1697Z" fill="#005DCC"/>
</g>
<g id="Group_3">
<path id="Vector_9" d="M25.9532 33.7325C25.7402 33.4895 25.4631 33.306 25.15 33.2026C24.8883 33.1147 24.6009 33.0863 24.3007 33.1303C24.2545 33.1354 24.2057 33.1458 24.1595 33.1561C23.4846 33.306 22.9406 33.8566 22.7892 34.5364C22.4941 35.8857 23.6617 37.0619 25.0012 36.762C25.3758 36.6767 25.712 36.4725 25.9635 36.1856C26.002 36.1416 26.0379 36.0951 26.0713 36.0486C26.0866 36.0253 26.102 36.0046 26.1174 35.9814C26.2355 35.8004 26.3227 35.5962 26.374 35.3817C26.4921 34.844 26.3766 34.3348 26.1149 33.9341C26.0995 33.9109 26.0841 33.8902 26.0687 33.8695C26.0353 33.823 25.9994 33.7765 25.9609 33.7325H25.9532Z" fill="#005DCC"/>
<path id="Vector_10" d="M28.7146 33.1174C28.6787 33.1148 28.6428 33.1122 28.6069 33.1096C28.4503 33.1044 28.2887 33.12 28.1244 33.1561C27.7498 33.2414 27.4136 33.4482 27.1647 33.7326C27.1262 33.7765 27.0903 33.8205 27.0569 33.8696C27.0416 33.8928 27.0262 33.9135 27.0108 33.9368C26.8902 34.1177 26.8003 34.3219 26.7542 34.5365C26.6387 35.0741 26.7516 35.5808 27.0133 35.9814C27.0287 36.0047 27.0441 36.0254 27.0595 36.0486C27.0929 36.0977 27.1288 36.1443 27.1699 36.1882C27.5573 36.6276 28.1501 36.8784 28.7942 36.7931C28.8301 36.7879 28.8635 36.7827 28.8994 36.775C28.9199 36.7724 28.943 36.7672 28.9635 36.762C29.0636 36.7388 29.1611 36.7078 29.2561 36.669C29.7924 36.4467 30.2055 35.9633 30.3338 35.3843C30.5571 34.371 29.9592 33.4586 29.079 33.1897C28.961 33.1536 28.8404 33.1277 28.7146 33.1174Z" fill="#005DCC"/>
<path id="Vector_11" d="M18.8427 35.1206C20.2233 34.2883 21.5166 33.2 22.697 31.874C23.2461 32.0498 23.785 32.1738 24.311 32.2514C24.6472 32.2979 24.9757 32.3263 25.3015 32.3341C26.369 32.3625 27.3826 32.1687 28.3372 31.7577C28.3654 31.7447 28.3937 31.7318 28.4193 31.7189C28.4553 31.7034 28.4937 31.6853 28.5297 31.6698C28.6862 31.5974 28.8376 31.5199 28.9864 31.4371C29.9795 30.8866 30.8058 30.124 31.4884 29.271V29.2684C31.5012 29.2529 31.5089 29.2426 31.5217 29.2271C31.7321 28.9634 31.9246 28.6972 32.1068 28.4232V28.418C33.9723 25.6031 34.5317 22.2686 34.5625 22.0644L32.425 21.7154L31.9785 21.6405C31.9785 21.6405 31.9374 21.8757 31.8527 22.2427C31.8399 22.297 31.8271 22.3539 31.8117 22.4133C31.4832 23.7704 30.6159 26.606 28.8248 28.3094C28.6811 28.4464 28.5322 28.5757 28.3757 28.6972C28.3398 28.723 28.3064 28.7515 28.2705 28.7773C27.9703 28.997 27.6469 29.1883 27.3005 29.3356C26.4486 29.7001 25.4966 29.7906 24.447 29.6019C24.9064 28.9143 25.3426 28.1828 25.7506 27.4099C27.321 24.4399 26.9105 21.8757 24.6523 20.5522C21.9708 18.9806 17.4699 19.7587 15.5915 21.9972C15.4658 22.1445 15.3554 22.2944 15.2554 22.4521C15.1399 22.6382 15.0424 22.8269 14.9603 23.0208C14.8525 23.2793 14.7755 23.5481 14.7319 23.8221C14.6857 24.0961 14.6729 24.3778 14.6908 24.6596C14.7088 24.9413 14.7601 25.2231 14.8397 25.5048C14.8935 25.6987 14.9654 25.89 15.0501 26.0839C15.1373 26.2829 15.2425 26.4845 15.3657 26.681C15.9739 27.6891 16.9952 28.692 18.4065 29.6717C18.9941 30.0775 19.5715 30.4368 20.136 30.7521C18.5938 32.3031 16.8592 33.3913 15.0141 33.9703C14.8191 34.0298 14.6241 34.0892 14.4265 34.1358C14.3624 34.1513 14.2982 34.1668 14.2366 34.1823C13.241 34.4123 12.2171 34.5002 11.1753 34.4304C7.48271 34.19 4.12628 31.9334 3.01004 28.9479C2.05289 26.3837 2.85094 23.636 5.26049 21.2114C7.19274 19.2675 10.3875 18.2646 15.0064 18.1509C15.0706 18.1509 15.1348 18.1483 15.1963 18.1457C15.3862 18.1405 15.5787 18.1379 15.7763 18.1379C15.8225 18.1379 15.8686 18.1379 15.9174 18.1379H19.1507V15.4988H15.902C15.707 15.4988 15.512 15.4988 15.3221 15.5039C15.2579 15.5039 15.1938 15.5039 15.1322 15.5065C9.70493 15.6151 5.86352 16.8714 3.41035 19.3425C0.279734 22.4935 -0.762093 26.332 0.562002 29.8759C2.05289 33.8643 6.25356 36.7542 11.0136 37.0644C11.3062 37.0851 11.5987 37.0903 11.8912 37.0903C12.6405 37.0903 13.3847 37.0282 14.1109 36.9016C14.175 36.8912 14.2366 36.8783 14.3008 36.868C14.4984 36.8318 14.696 36.7904 14.8884 36.7465C15.843 36.5242 16.7719 36.1933 17.6675 35.7591C18.0652 35.5678 18.4553 35.3558 18.8402 35.1232L18.8427 35.1206ZM20.3901 26.774C18.6657 25.5746 18.0601 24.5562 18.2063 24.3261C18.5348 23.804 19.8589 23.2457 21.301 23.2457C21.9605 23.2457 22.5302 23.3671 22.9074 23.5869C23.0511 23.6696 23.1435 23.7342 23.1897 23.8867C23.241 24.0625 23.2949 24.5924 22.679 25.7582C22.3429 26.3915 21.9862 26.9937 21.6141 27.5547C21.2164 27.3272 20.8083 27.0661 20.3901 26.7766V26.774Z" fill="#005DCC"/>
<path id="Vector_12" d="M58.378 25.4764C58.3165 25.4764 58.2549 25.479 58.1958 25.4867C58.047 25.5023 57.9033 25.5384 57.7724 25.5953C57.6133 25.6599 57.4645 25.7478 57.3362 25.859C56.9795 26.0451 56.6203 26.1511 56.2585 26.1795C54.203 26.3475 52.1835 24.0159 51.424 23.1371L51.4009 23.1138C51.0237 22.677 50.7003 22.3254 50.395 22.0101C48.5679 20.136 46.805 18.673 45.1166 17.6313C45.0319 17.5796 44.9472 17.5279 44.8625 17.4788C42.6121 16.1347 40.495 15.5427 38.5294 15.7107C35.4116 15.977 33.9054 18.1069 33.8412 18.1974L36.0711 19.7638C36.1866 19.6191 37.0642 18.5567 38.8271 18.4352C40.1615 18.3421 42.2066 18.7712 45.0344 20.8857C45.1166 20.9477 45.2038 21.0123 45.2885 21.0769C46.2533 21.8188 47.3054 22.7571 48.4499 23.9306C48.7193 24.2046 49.0042 24.5174 49.348 24.9129L49.3711 24.9387C50.3 26.0141 52.6531 28.7308 55.7067 28.9143L53.2536 32.2979L53.2305 32.3341C53.2125 32.3599 53.1946 32.3858 53.1715 32.4142C52.3862 33.5025 51.2136 34.1952 49.8741 34.3684C48.5063 34.5467 47.1027 34.1435 46.0301 33.2621C45.9865 33.2259 45.9454 33.1923 45.9043 33.1587C45.8171 33.0863 45.7298 33.0139 45.6477 32.9441C45.5784 32.8847 45.5092 32.8252 45.4424 32.7683C44.3544 31.7318 43.8412 30.8038 43.387 29.987C42.8558 29.0306 42.3067 28.0406 41.0775 27.397C40.6901 27.1953 39.2967 26.5776 37.6518 27.154C36.5176 27.5521 35.6169 28.3766 35.1166 29.4778L32.7814 34.6295C32.5017 35.2472 32.1502 35.8082 31.737 36.3096C31.5574 36.5293 31.3624 36.7361 31.1597 36.9326C30.6208 37.4521 30.0049 37.8838 29.33 38.2121C29.1787 38.2845 29.0273 38.3543 28.8733 38.4163C28.1907 38.6929 27.4568 38.8712 26.6896 38.9359C24.0619 39.1582 21.6164 37.9924 20.1512 35.8159C20.123 35.7746 20.0922 35.7332 20.0639 35.6893C20.0178 35.6221 19.969 35.5548 19.9485 35.5135L19.1863 35.9271L18.1291 36.5009H18.1214L17.5518 36.8137C17.6493 36.9972 17.7545 37.1471 17.8392 37.2686C17.8597 37.2971 17.8828 37.3281 17.9007 37.3591C19.7637 40.1223 22.7609 41.7069 26.0455 41.7069C26.3354 41.7069 26.628 41.6939 26.9205 41.6707C27.6441 41.6086 28.3472 41.4742 29.0221 41.2726C29.1761 41.2261 29.33 41.1744 29.4814 41.1201C30.0075 40.934 30.5156 40.7065 30.998 40.4377C31.1905 40.3317 31.3778 40.218 31.56 40.0991C33.1484 39.0729 34.4314 37.5943 35.2577 35.772L37.5928 30.6203C37.7801 30.2067 38.1189 29.8965 38.5474 29.7466C39.194 29.5192 39.7637 29.8009 39.8279 29.8345C40.3129 30.0878 40.5412 30.4756 41.016 31.3286C41.5138 32.2255 42.1964 33.4559 43.6051 34.7897L43.6462 34.8259C43.8566 35.0094 44.0824 35.2007 44.3159 35.392C44.783 35.7746 45.291 36.1003 45.8274 36.3613C45.9095 36.4027 45.9942 36.4415 46.0788 36.4776C47.3721 37.0541 48.8117 37.2764 50.2307 37.0928C52.317 36.8214 54.144 35.7358 55.3757 34.0349C55.4091 33.991 55.4373 33.947 55.4681 33.9057L59.6944 28.0716C59.8484 27.8545 59.951 27.6012 59.987 27.3246C59.9972 27.2548 59.9998 27.1876 59.9998 27.1152C59.9998 26.2131 59.2736 25.479 58.378 25.479V25.4764Z" fill="#005DCC"/>
<path id="Vector_13" d="M21.3008 18.1302C21.7088 18.5309 22.3016 18.7377 22.9354 18.6188C22.9559 18.6162 22.979 18.611 22.997 18.6059C23.6744 18.4534 24.2159 17.9079 24.3673 17.2255C24.6213 16.0779 23.8181 15.0594 22.7481 14.9586C22.5582 14.9405 22.3606 14.9534 22.1579 14.9974C21.8243 15.0723 21.5189 15.2455 21.2828 15.4833C21.252 15.5118 21.2238 15.5428 21.2007 15.5712C21.0031 15.7961 20.8569 16.0727 20.7901 16.3777C20.6516 17.011 20.8363 17.6029 21.2059 18.0269C21.2366 18.063 21.2674 18.0941 21.3008 18.1277V18.1302Z" fill="#005DCC"/>
</g>
<g id="Group_4">
<path id="Vector_14" d="M29.0684 42.1594C28.3961 42.3481 27.7007 42.4721 26.995 42.5342C26.6743 42.56 26.3561 42.573 26.0482 42.573C22.4428 42.573 19.2121 40.8488 17.1849 37.8426L17.1772 37.8297C17.1772 37.8297 17.1618 37.8064 17.1541 37.7961L17.1285 37.7599C17.0464 37.6436 16.9181 37.4575 16.7923 37.2223L16.7256 37.1008C16.1867 37.2998 15.6402 37.4652 15.0859 37.5945C14.8729 37.6436 14.6625 37.6875 14.4598 37.7263C14.3315 37.7496 14.2006 37.7728 14.0697 37.7935L13.6361 46.9621H29.3122L29.0684 42.1594ZM22.7482 14.9613C22.5583 14.9432 22.3607 14.9561 22.158 15.0001C21.8244 15.075 21.519 15.2482 21.283 15.486C21.2522 15.5144 21.2239 15.5455 21.2008 15.5739C21.0033 15.7988 20.857 16.0754 20.7903 16.3804C20.6517 17.0137 20.8365 17.6056 21.206 18.0295C21.2368 18.0657 21.2676 18.0967 21.3009 18.1303C21.7089 18.531 22.3017 18.7378 22.9355 18.6189C22.956 18.6163 22.9791 18.6111 22.9971 18.606C23.6745 18.4535 24.216 17.908 24.3674 17.2256C24.6214 16.0779 23.8182 15.0595 22.7482 14.9587V14.9613ZM28.0805 22.7418L28.0394 21.943L27.8906 19.0221L27.7726 16.7087L27.7649 16.5872L27.1567 4.62435L26.9232 0H14.5342L12.6045 9.70881H15.3964L15.2476 13.2449V13.263L15.1808 14.633C15.227 14.633 15.2732 14.633 15.3168 14.633C15.5067 14.6304 15.7094 14.6278 15.9096 14.6278H20.9519C21.2547 14.4004 21.5986 14.2375 21.9707 14.1522C22.2658 14.0876 22.5532 14.0695 22.8354 14.0953C23.6053 14.1677 24.3109 14.571 24.7677 15.2043C25.2245 15.8376 25.3887 16.644 25.2168 17.4221C25.1218 17.8538 24.9217 18.2492 24.6445 18.5749C24.4187 18.8464 24.139 19.0687 23.8234 19.2315C23.8978 19.2548 23.9696 19.2806 24.0441 19.3065C24.3392 19.4124 24.6266 19.5365 24.896 19.6839C24.9037 19.6839 24.9088 19.6916 24.9191 19.6968C24.9781 19.7278 25.0371 19.7614 25.0962 19.795C25.9224 20.2784 26.546 20.9091 26.9566 21.6484C27.4005 22.3075 27.8162 23.1424 28.1523 24.1971L28.0779 22.7469L28.0805 22.7418Z" fill="#FFD110"/>
<path id="Vector_15" d="M44.8111 16.4424C42.5838 15.2068 40.4514 14.6692 38.4575 14.8398C38.3831 14.845 38.3113 14.8527 38.2394 14.8605C35.8427 15.1293 33.7411 16.5949 32.5684 18.7171L31.9731 19.7976L32.0937 17.2463L32.4478 9.71139H29.6533L31.583 0H43.9772L44.7521 15.2637L44.8111 16.4398V16.4424Z" fill="#FFD110"/>
<path id="Vector_16" d="M46.3666 46.962H30.6904L30.9522 41.4407C31.3243 41.2572 31.6835 41.053 32.0325 40.8281C33.7774 39.6985 35.1682 38.0752 36.0484 36.1288L38.3835 30.9771C38.4733 30.7807 38.6299 30.6385 38.8352 30.5661C38.9173 30.5377 38.9968 30.5273 39.0712 30.5273C39.274 30.5273 39.4305 30.6049 39.4305 30.6049C39.6743 30.7315 39.818 30.9513 40.2645 31.7577C40.7905 32.7038 41.509 33.9988 43.0204 35.4309L43.0794 35.4851C43.3155 35.6919 43.549 35.8884 43.7697 36.0667C44.3651 36.5553 45.022 36.9611 45.7276 37.2765C45.7764 37.2997 45.8277 37.3204 45.879 37.3411L46.3666 46.9646V46.962Z" fill="#FFD110"/>
</g>
</g>
<path id="Vector_17" d="M22.7481 14.9613C22.5582 14.9432 22.3606 14.9561 22.1579 15.0001C21.8243 15.075 21.5189 15.2482 21.2828 15.486C21.252 15.5144 21.2238 15.5455 21.2007 15.5739C21.0031 15.7988 20.8569 16.0754 20.7901 16.3804C20.6516 17.0137 20.8363 17.6056 21.2059 18.0295C21.2366 18.0657 21.2674 18.0967 21.3008 18.1303C21.7088 18.531 22.3016 18.7378 22.9354 18.6189C22.9559 18.6163 22.979 18.6111 22.997 18.606C23.6744 18.4535 24.2159 17.908 24.3673 17.2256C24.6213 16.078 23.8181 15.0595 22.7481 14.9587V14.9613Z" fill="#005DCC"/>
</g>
</g>
</g>
</g>
</g>
<defs>
<clipPath id="clip0_0_1">
<rect width="60" height="52" fill="white"/>
</clipPath>
</defs>
</svg>
